<svg xmlns="http://www.w3.org/2000/svg" width="32" height="32" viewBox="0 0 32 32"><title>eindpunt2</title><rect x="2" y="2" width="28" height="28" fill="#fff"/><path d="M32,32H0V0H32ZM1.9,30.1H30.1V1.9H1.9Z"/><path d="M33,33H-1V-1H33ZM2.9,29.1H29.1V2.9H2.9Z"/><path d="M10.52,24.59a.9.9,0,0,1-.11-.29c0-5.22,0-11.19,0-16.41,0-.26.05-.3.36-.3h.69c.29,0,.35,0,.35.29q0,1.66,0,3.32c0,4.11,0,9,0,13.08a.34.34,0,0,1-.13.31Z"/><path d="M23.13,7.66s0,.08,0,.12q0,3.62,0,7.25a.67.67,0,0,1-.3.6,4.72,4.72,0,0,1-1.83.75,6,6,0,0,1-2,.1,5.21,5.21,0,0,1-1.59-.56c-.59-.3-1.17-.62-1.78-.89a4.62,4.62,0,0,0-3.09-.21l-.21,0c-.17,0-.21,0-.22-.2q0-.65,0-1.29,0-2.5,0-5c0-.46,0-.49.46-.61A4.5,4.5,0,0,1,15.7,8c.58.26,1.14.57,1.71.86A5.63,5.63,0,0,0,19,9.5a3.76,3.76,0,0,0,2.29-.36A4.81,4.81,0,0,0,23,7.74l.08-.09Z"/></svg>