<svg xmlns="http://www.w3.org/2000/svg" width="32" height="32" viewBox="0 0 32 32"><title>toilet</title><rect x="1.94" y="2" width="28" height="28" fill="#fff"/><path d="M32,32H0V0H32ZM1.9,30.1H30.1V1.9H1.9Z"/><path d="M33,33H-1V-1H33ZM2.9,29.1H29.1V2.9H2.9Z"/><path d="M17.48,10.56l-1.6,11c0,.2-.15.27-.37.27h-1.8a.32.32,0,0,1-.37-.26l-1.53-6.8-1.55,6.79a.32.32,0,0,1-.37.27H8.09c-.22,0-.33-.06-.37-.28l-1.53-11c0-.22.08-.34.32-.34H8.07a.32.32,0,0,1,.35.31l.82,7h.08l1.63-7a.34.34,0,0,1,.37-.28h1a.34.34,0,0,1,.37.28l1.63,7h.08l.85-7a.31.31,0,0,1,.35-.31h1.56A.29.29,0,0,1,17.48,10.56Zm8.2,3.85c0,.17-.17.11-.33.11H23.79c-.18,0-.18.05-.18-.11V13.05a.75.75,0,0,0-.75-.77H21.79c-.45,0-.6.34-.6.77v6c0,.45.17.63.6.63h1.06c.43,0,.75-.18.75-.63V17.68c0-.17,0-.38.18-.38h1.56a.41.41,0,0,1,.33.38v1.8a2.15,2.15,0,0,1-2.46,2.32H21.36c-1.56,0-2.25-.76-2.25-2.32V12.62c0-1.56.68-2.41,2.25-2.41h1.86a2.21,2.21,0,0,1,2.46,2.41Z"/></svg>