<svg xmlns="http://www.w3.org/2000/svg" width="32" height="32" viewBox="0 0 32 32"><title>trap</title><rect x="2" y="2" width="28" height="28" fill="#fff"/><polygon points="26.03 8.91 18.77 8.91 18.77 9.43 23.78 9.43 23.78 9.6 19.46 9.6 19.46 12.71 12.71 12.71 12.71 13.23 17.9 13.23 17.9 13.4 13.4 13.4 13.4 16.52 7 16.52 7 17.04 12.02 17.04 12.02 17.21 7.7 17.21 7.7 20.32 5.97 20.32 5.97 23.09 7.35 23.09 26.03 10.94 26.03 8.91"/><path d="M32,32H0V0H32ZM1.9,30.1H30.1V1.9H1.9Z"/><path d="M33,33H-1V-1H33ZM2.9,29.1H29.1V2.9H2.9Z"/></svg>