<?xml version="1.0" encoding="utf-8"?>
<!-- Generator: Adobe Illustrator 16.2.0, SVG Export Plug-In . SVG Version: 6.00 Build 0)  -->
<!DOCTYPE svg PUBLIC "-//W3C//DTD SVG 1.1//EN" "http://www.w3.org/Graphics/SVG/1.1/DTD/svg11.dtd">
<svg version="1.1" id="Layer_1" xmlns="http://www.w3.org/2000/svg" xmlns:xlink="http://www.w3.org/1999/xlink" x="0px" y="0px"
	 width="450.185px" height="496.89px" viewBox="0 0 450.185 496.89" enable-background="new 0 0 450.185 496.89"
	 xml:space="preserve">
<g>
	<path fill-rule="evenodd" clip-rule="evenodd" d="M77.983,146.102c-3.272,3.442-6.55,6.906-9.063,9.56c-23.897,0-45.93,0-68.92,0
		C0,103.814,0,52.865,0,0.669c22.219,0,44.195,0,67.83,0c2.713,2.54,6.521,6.097,10.209,9.547c0,19.052,0,37.357,0,56.235
		c-2.756,3.485-5.715,7.211-9.183,11.59c2.941,3.697,5.829,7.334,9.127,11.476C77.983,107.426,77.983,125.719,77.983,146.102z
		 M50.847,26.903c-8.789,0-15.753,0-22.973,0c0,12.82,0,24.597,0,36.633c8.267,0,15.516,0,22.973,0
		C50.847,50.762,50.847,39.341,50.847,26.903z M27.729,128.623c8.348,0,15.262,0,22.702,0c0-12.574,0-24.207,0-36.162
		c-8.038,0-14.965,0-22.702,0C27.729,104.632,27.729,115.934,27.729,128.623z"/>
	<path fill-rule="evenodd" clip-rule="evenodd" d="M362.675,422.675c-3.803,4.727-6.507,8.084-9.56,11.87
		c3.091,20.23,6.189,40.592,9.438,61.979c-8.971,0-16.509,0-25.958,0c-3.676-19.865-7.406-40.041-11.332-61.25
		c-4.498-0.31-8.542-0.577-14.571-0.988c0,21.18,0,41.182,0,62.107c-9.348,0-16.809,0-25.359,0c0-51.666,0-103.038,0-155.272
		c22.735,0,44.789,0,70.242,0c2.162,6.292,6.41,13.38,6.758,20.654C363.311,381.994,362.675,402.296,362.675,422.675z
		 M311.357,367.753c0,13.545,0,25.755,0,38.825c8.232,0,15.571,0,23.249,0c0-13.512,0-26.03,0-38.825
		C326.556,367.753,319.921,367.753,311.357,367.753z"/>
	<path fill-rule="evenodd" clip-rule="evenodd" d="M170.796,144.584c0-44.603,0-88.557,0-133.341
		c3.235-3.48,6.792-7.321,10.438-11.243c18.722,0,37.015,0,56.507,0c3.209,2.951,7.042,6.482,10.836,9.967
		c0,45.493,0,90.388,0,137.152c-2.658,2.607-6.054,5.931-9.018,8.843c-20.204,0-38.959,0-58.249,0
		C177.744,152.105,174.196,148.26,170.796,144.584z M221.559,128.962c0-34.975,0-68.347,0-101.996c-8.712,0-16.131,0-23.766,0
		c0,34.543,0,67.996,0,101.996C206.025,128.962,213.127,128.962,221.559,128.962z"/>
	<path fill-rule="evenodd" clip-rule="evenodd" d="M77.029,326.348c-8.598,0-15.736,0-24.652,0c0-20.867,0-41.359,0-63.142
		c-9.034,0-16.326,0-25.461,0c0,20.73,0,41.249,0,62.709c-9.729,0-17.674,0-26.755,0c0-51.44,0-102.411,0-154.691
		c8.394,0,16.652,0,26.729,0c0,21.112,0,41.644,0,62.917c8.779,0,15.758,0,24.474,0c0-21.167,0-41.699,0-63.188
		c9.183,0,16.665,0,25.665,0C77.029,222.262,77.029,273.542,77.029,326.348z"/>
	<path fill-rule="evenodd" clip-rule="evenodd" d="M304.812,84.431c-4.685,0-8.716,0-14.197,0c0,23.665,0,46.701,0,70.908
		c-9.327,0-17.212,0-26.212,0c0-51.199,0-102.208,0-154.563c7.754,0,15.635,0,25.741,0c0,17.704,0,35.738,0,54.62
		c9.148,0,16.126,0,24.626,0c0-17.967,0-35.62,0-54.612c9.306,0,17.141,0,26.264,0c0,23.355,0,46.794,0,72.265
		c-1.603,2.132-4.477,5.943-8.284,10.971c4.027,22.626,8.241,46.298,12.701,71.336c-9.225,0-17.144,0-26.716,0
		C314.177,132.112,309.564,108.638,304.812,84.431z"/>
	<path fill-rule="evenodd" clip-rule="evenodd" d="M174.417,316.253c-3.384,3.214-6.851,6.512-10.599,10.069
		c-18.302,0-36.573,0-56.036,0c-3.239-2.896-7.127-6.377-11.205-10.019c0-48.396,0-96.479,0-145.326
		c4.554-0.398,8.28-0.958,12.011-0.983c4.23-0.034,8.466,0.416,14.49,0.763c0,42.953,0,85.14,0,128.169c8.868,0,15.914,0,24.889,0
		c0-42.406,0-84.597,0-127.873c9.764,0,17.606,0,26.45,0C174.417,219.256,174.417,266.87,174.417,316.253z"/>
	<path fill-rule="evenodd" clip-rule="evenodd" d="M240.636,242.132c0-20.455,0-40.16,0-62.124
		c2.837-2.531,6.749-6.028,10.743-9.581c18.657,0,36.925,0,56.307,0c3.307,3.027,7.161,6.55,10.942,10.014
		c0,11.913,0,23.257,0,35.246c-8.665,0-16.241,0-24.991,0c-0.835-5.744-1.641-11.26-2.573-17.712c-7.533,0-14.978,0-23.448,0
		c0,9.085,0,17.572,0,28.298c15.843,8.763,33.037,18.276,51.068,28.247c0,19.941,0,40.036,0,62.688
		c-2.506,2.302-6.355,5.851-9.997,9.204c-19.179,0-37.464,0-56.867,0c-3.251-3.091-7.037-6.703-11.064-10.548
		c0-11.12,0-22.049,0-34.19c8.482,0,16.325,0,24.805,0c0.636,5.362,1.263,10.505,2.014,16.881c7.486,0,14.889,0,23.481,0
		c0-8.801,0-17.699,0-28.514C275.039,261.175,257.873,251.675,240.636,242.132z"/>
	<path fill-rule="evenodd" clip-rule="evenodd" d="M0.093,340.384c21.612,0,42.296-0.598,62.9,0.407
		c5.29,0.254,10.335,5.57,14.978,8.267c0,29.909,0,57.825,0,87.226c-2.789,2.98-6.028,6.439-9.148,9.775c-14.401,0-27.28,0-41.508,0
		c0,16.958,0,32.707,0,49.877c-9.619,0-17.869,0-27.221,0C0.093,444.842,0.093,393.945,0.093,340.384z M27.849,417.779
		c8.246,0,15.503,0,22.469,0c0-17.356,0-33.419,0-49.491c-8.136,0-15.063,0-22.469,0C27.849,385.385,27.849,401.436,27.849,417.779z
		"/>
	<path fill-rule="evenodd" clip-rule="evenodd" d="M424.922,496.576c-9.742,0-17.195,0-26.424,0c0-42.788,0-84.953,0-128.372
		c-9.102-0.619-16.525-1.128-25.279-1.726c0-8.306,0-16.11,0-25.089c25.262,0,50.546,0,76.966,0c0,8.093,0,15.923,0,25.029
		c-7.991,0.509-15.495,0.979-25.263,1.598C424.922,410.78,424.922,453.296,424.922,496.576z"/>
	<path fill-rule="evenodd" clip-rule="evenodd" d="M240.42,367.919c-7.906-0.476-14.575-0.878-22.389-1.345
		c0-8.283,0-16.16,0-25.189c12.965,0,25.775,0,41.381,0c2.086,2.271,5.617,6.117,8.852,9.64c0,45.48,0,89.909,0,135.423
		c-3.345,3.21-7.16,6.847-10.92,10.442c-13.041,0-25.513,0-39.219,0c0-8.275,0-16.118,0-25.076
		c7.012-0.534,14.062-1.077,22.295-1.704C240.42,436.309,240.42,402.813,240.42,367.919z"/>
	<path fill-rule="evenodd" clip-rule="evenodd" d="M122.526,470.05c8.212,0.645,15.258,1.195,22.931,1.802
		c0,8.386,0,15.901,0,24.474c-12.904,0-25.258,0-39.578,0c-2.828-2.615-7.004-6.481-10.861-10.047c0-45.272,0-89.672,0-135.241
		c3.184-3.421,6.753-7.249,9.471-10.166c14.583,0,27.051,0,40.601,0c0,8.492,0,16.386,0,25.437
		c-7.267,0.551-14.304,1.09-22.563,1.722C122.526,401.771,122.526,435.232,122.526,470.05z"/>
	<path fill-rule="evenodd" clip-rule="evenodd" d="M158.553,129.03c0,10.158,0,17.674,0,26.369c-20.892,0-41.355,0-62.874,0
		c0-51.326,0-102.318,0-154.636c7.635,0,15.474,0,25.22,0c0,42.169,0,84.363,0,128.267C133.99,129.03,145.326,129.03,158.553,129.03
		z"/>
	<path fill-rule="evenodd" clip-rule="evenodd" d="M196.58,170.771c8.898,0,16.398,0,24.894,0c0,51.69,0,102.559,0,154.779
		c-7.847,0-15.673,0-24.894,0C196.58,274.504,196.58,223.314,196.58,170.771z"/>
</g>
</svg>
