<?xml version="1.0" encoding="utf-8"?>
<!-- Generator: Adobe Illustrator 20.1.0, SVG Export Plug-In . SVG Version: 6.00 Build 0)  -->
<svg version="1.2" baseProfile="tiny" id="Layer_1" xmlns="http://www.w3.org/2000/svg" xmlns:xlink="http://www.w3.org/1999/xlink"
	 x="0px" y="0px" viewBox="0 0 1024 1024" overflow="scroll" xml:space="preserve">
<polygon fill="#324537" points="163.9,615.3 201.5,611.5 369.7,602.3 374.5,638.3 169.3,655.7 162.7,627 "/>
<polygon fill="#396D69" points="338.5,306.8 666.2,306.8 660.4,240.7 332,240.7 "/>
<polygon fill="#818348" points="346.6,373.5 335.2,275.4 6.2,275.4 6.2,373.5 47.6,373.5 47.6,396.4 85.1,396.4 85.1,421.8 
	108,420.5 108.2,373.5 "/>
<polygon fill="#324537" points="52.2,814.2 383.4,784.1 369.1,633.6 37.2,662.9 "/>
<path fill="#377184" d="M33.9,504.5l0.4,8.4l82.3-4.6l-1.3-27.7l-4.6,0.2l-2.7-60.4l-77.6,4.5l2.5,55.7l-5,0.2l-6.7,7.3l0.4,9.9
	l7.3,6.7L33.9,504.5z M165.2,606.5l-48.2,4.7l-0.5,1.4l-2.8-63.3l4.9-0.2l-1.3-26.4l-82.4,4.6l0.4,8.7l-4.8,0.2l-6.7,7.3l0.4,9.9
	l7.3,6.7l4.9-0.2l2.5,57.7l3.5-0.2l3,44.8l124.3-10.7L165.2,606.5z"/>
<polygon fill="#B7A885" points="366.7,606.3 361.7,551 340.1,553 338.6,536.4 192.6,549.5 199.4,621.4 "/>
<path fill="#48638B" d="M430.7,477.1l17.9-1.8l-2.4-25.1l-29.3,3l-13.5-146.7h-64.7l16.1,172.8l-8.9,0.9l1.5,15.7l84.4-8.4
	L430.7,477.1z M636.9,695.5l-207.3,18l11.2-1l-16.2-175.2l30.1-3l-2.6-24.9l-17.9,1.8l-1-9.5l-84.5,8.4l1.7,18.2l8.8-0.9L377,718.2
	l5.9,62.1l259.7-22.4L636.9,695.5z"/>
<path fill="#A68C47" d="M865.7,483.6l13.5-1.3l-3.9-45.5l-13.5,1.3l-8.9-103.8l-23.8,2c0-0.1,0-0.2,0-0.3
	c-1.2-14.4-13.9-25-28.3-23.8c-14.4,1.2-25,13.9-23.8,28.2c0,0.1,0,0.2,0,0.3l-23.3,2l26.7,311.9l99.1-8.5L865.7,483.6z"/>
<polygon fill="#578FA2" points="72.3,516.9 27.6,519.2 27.7,521.9 72.4,519.5 "/>
<polygon fill="#578FA2" points="72.3,516.9 72.7,523.5 70,523.6 69.7,517.5 "/>
<rect x="412" y="325" fill="#5A837C" width="19.3" height="3.2"/>
<polygon fill="#93594B" points="651.3,473.1 600.8,477.6 601,480.3 651.5,475.7 "/>
<polygon fill="#93594B" points="648.9,475.3 648.3,468.7 651,468.6 651.6,475.8 "/>
<polygon fill="#7F7B6B" points="346.9,504.7 415,498.2 414.8,495.6 346.8,502 "/>
<polygon fill="#7F7B6B" points="412.3,498.3 411.7,491.7 414.4,491.5 415,497.6 "/>
<polygon fill="#414623" points="995.4,405.6 944.6,410.1 942.8,389.8 923.5,391.5 920.1,353.3 954.4,350.2 948.1,273.4 897.7,278 
	904,354.8 904.7,354.7 908.2,393.2 908.7,393.1 910.4,413.1 873.5,416.4 880.4,498.9 1002.3,488.1 "/>
<path fill="#9B4B39" d="M665.9,306.7l-64.3,0.2l11.9,128.9l-12.9,1.2l3.5,32.6l76.7-6.6L665.9,306.7z M781.8,683.4l-79.7,6.9l-1-1.2
	l-18.6-209.7l-76.6,6.6l2.7,34.8l12.6-1.2l16.2,175.7l-0.2,0.6l5.4,62.5l145-12.6L781.8,683.4z"/>
<rect x="411.9" y="311.2" fill="#5A837C" width="2.8" height="17"/>
<polygon fill="#9D9E68" points="124.1,416.6 126.1,414.6 117.7,406.3 134.2,406.3 134.2,403.3 117.7,403.3 126.1,394.9 124.1,393 
	112.3,404.8 "/>
<polygon fill="#5A837C" points="447,337.9 448.9,335.9 440.6,327.6 457.1,327.6 457.1,324.7 440.6,324.7 448.9,316.3 447,314.3 
	435.2,326.1 "/>
<polygon fill="#5B6E5D" points="193.1,595.2 190.9,593.5 183.5,602.6 181.8,586.8 178.9,587.1 180.6,603 171.4,595.4 169.6,597.6 
	182.5,608.1 "/>
<polygon fill="#7F7B6B" points="330.4,493.1 328.7,495.2 337.8,502.7 322,504.3 322.3,507.2 338.2,505.6 330.6,514.8 332.8,516.5 
	343.3,503.6 "/>
<g display="none">
	<rect x="162.7" y="675.5" display="inline" fill="#FFFFFF" width="76.8" height="89.5"/>
	<rect x="422.7" y="645.2" display="inline" fill="#FFFFFF" width="76.8" height="89.5"/>
	<rect x="143" y="240.7" display="inline" fill="#FFFFFF" width="76.8" height="89.5"/>
	<rect x="19.3" y="546.1" display="inline" fill="#FFFFFF" width="76.8" height="89.5"/>
	<rect x="228.8" y="505.3" display="inline" fill="#FFFFFF" width="76.8" height="89.5"/>
	<path display="inline" fill="#231F20" d="M281.2,575.8c0.2-0.2,0.3-0.6,0.3-0.8v-20.7c0-0.3-0.2-0.6-0.3-0.8l-3.6-3.6
		c-0.2-0.2-0.2-0.5,0-0.7l3.6-3.6c0.2-0.2,0.3-0.6,0.3-0.8v-20.7c0-0.3-0.2-0.6-0.3-0.8l-3.6-3.6c-0.2-0.2-0.6-0.3-0.8-0.3h-25
		c-0.3,0-0.5,0.2-0.5,0.5v59.5c0,0.3,0.2,0.5,0.5,0.5h25c0.3,0,0.6-0.1,0.8-0.3L281.2,575.8z M271.5,569.2c0,0.3-0.2,0.5-0.5,0.5
		h-9.1c-0.3,0-0.5-0.2-0.5-0.5V555c0-0.3,0.2-0.5,0.5-0.5h9.1c0.3,0,0.5,0.2,0.5,0.5V569.2z M271.5,544c0,0.3-0.2,0.5-0.5,0.5h-9.1
		c-0.3,0-0.5-0.2-0.5-0.5v-14.1c0-0.3,0.2-0.5,0.5-0.5h9.1c0.3,0,0.5,0.2,0.5,0.5V544z"/>
	<path display="inline" fill="#231F20" d="M72.6,565.2c0-0.3-0.2-0.6-0.3-0.8l-3.6-3.6c-0.2-0.2-0.6-0.3-0.8-0.3H57.4H47
		c-0.3,0-0.6,0.2-0.8,0.3l-3.6,3.6c-0.2,0.2-0.3,0.6-0.3,0.8v55.4c0,0.3,0.2,0.5,0.5,0.5h9.1c0.3,0,0.5-0.2,0.5-0.5v-19.3
		c0-0.3,0.2-0.5,0.5-0.5H62c0.3,0,0.5,0.2,0.5,0.5v-1.9l0,5.1v16.1c0,0.3,0.2,0.5,0.5,0.5h9.1c0.3,0,0.5-0.2,0.5-0.5V565.2z
		 M62.4,590.3c0,0.3-0.2,0.5-0.5,0.5h-9.1c-0.3,0-0.5-0.2-0.5-0.5l0-19.3c0-0.3,0.2-0.5,0.5-0.5h9.1c0.3,0,0.5,0.2,0.5,0.5V590.3z"
		/>
	<path display="inline" fill="#231F20" d="M195.4,259.1l-3.6-3.6c-0.2-0.2-0.6-0.3-0.8-0.3h-25c-0.3,0-0.5,0.2-0.5,0.5v59.5
		c0,0.3,0.2,0.5,0.5,0.5h25c0.3,0,0.6-0.2,0.8-0.3l3.6-3.6c0.2-0.2,0.3-0.6,0.3-0.8v-20.7v-9.5v-20.7
		C195.7,259.7,195.6,259.3,195.4,259.1 M185.2,305.5h-9.1c-0.3,0-0.5-0.2-0.5-0.5v-14.1v-11v-14.2c0-0.3,0.2-0.5,0.5-0.5h9.1
		c0.3,0,0.5,0.2,0.5,0.5v14.2v11v14.1C185.7,305.3,185.4,305.5,185.2,305.5"/>
	<path display="inline" fill="#231F20" d="M475.6,669.7c0.3,0,0.5-0.2,0.5-0.5v-9.1c0-0.3-0.2-0.5-0.5-0.5h-10.1h-1.8h-17.4
		c-0.3,0-0.5,0.2-0.5,0.5v59.5c0,0.3,0.2,0.5,0.5,0.5h17.4h1.8h10.1c0.3,0,0.5-0.2,0.5-0.5v-9.1c0-0.3-0.2-0.5-0.5-0.5h-10.1h-1.8
		h-7.3c-0.3,0-0.5-0.2-0.5-0.5v-14.1c0-0.3,0.2-0.5,0.5-0.5h1.2h7.9h3.9c0.3,0,0.5-0.2,0.5-0.5v-9.1c0-0.3-0.2-0.5-0.5-0.5h-3.9
		h-7.9h-1.2c-0.3,0-0.5-0.2-0.5-0.5v-14.1c0-0.3,0.2-0.5,0.5-0.5h7.3H475.6z"/>
	<path display="inline" fill="#231F20" d="M215.1,693.9l-3.6-3.6c-0.2-0.2-0.6-0.3-0.8-0.3h-10.3h-1h-3.5H194h0h-4
		c-0.3,0-0.6,0.2-0.8,0.3l-3.6,3.6c-0.2,0.2-0.3,0.6-0.3,0.8v50.9c0,0.3,0.2,0.6,0.3,0.8l3.6,3.6c0.2,0.2,0.6,0.3,0.8,0.3h4h0h5.3h1
		h10.3c0.3,0,0.6-0.2,0.8-0.3l3.6-3.6c0.2-0.2,0.3-0.6,0.3-0.8v-4.4v-3.6v-4.5c0-0.3-0.2-0.5-0.5-0.5h-9.1c-0.3,0-0.5,0.2-0.5,0.5
		v4.5v2.2c0,0.3-0.2,0.5-0.5,0.5h-4.6h-4.6h0c-0.3,0-0.5-0.2-0.5-0.5v-39.3c0-0.3,0.2-0.5,0.5-0.5h3.6h1h4.6c0.3,0,0.5,0.2,0.5,0.5
		v2.2v4.5c0,0.3,0.2,0.5,0.5,0.5h9.1c0.3,0,0.5-0.2,0.5-0.5v-4.5v-2.2v-5.8C215.4,694.4,215.3,694.1,215.1,693.9"/>
	<rect x="835.1" y="596.2" display="inline" fill="#FFFFFF" width="76.8" height="89.5"/>
	<path display="inline" fill="#231F20" d="M878.5,609.8c-0.3,0-0.5,0.2-0.5,0.5v24.2c0,0.3-0.2,0.5-0.5,0.5h-9.1
		c-0.3,0-0.5-0.2-0.5-0.5v-24.2c0-0.3-0.2-0.5-0.5-0.5h-9.1c-0.3,0-0.5,0.2-0.5,0.5v59.5c0,0.3,0.2,0.5,0.5,0.5h9.1
		c0.3,0,0.5-0.2,0.5-0.5v-24.2c0-0.3,0.2-0.5,0.5-0.5h9.1c0.3,0,0.5,0.2,0.5,0.5v24.2c0,0.3,0.2,0.5,0.5,0.5h9.1
		c0.3,0,0.5-0.2,0.5-0.5v-59.5c0-0.3-0.2-0.5-0.5-0.5H878.5z"/>
	<rect x="899.9" y="434.7" display="inline" fill="#FFFFFF" width="76.8" height="89.5"/>
	<path display="inline" fill="#231F20" d="M933.2,449.7c0-0.3,0.2-0.5,0.5-0.5h9.1c0.3,0,0.5,0.2,0.5,0.5v59.5
		c0,0.3-0.2,0.5-0.5,0.5h-9.1c-0.3,0-0.5-0.2-0.5-0.5V449.7z"/>
	<rect x="401.6" y="185.9" display="inline" fill="#FFFFFF" width="76.8" height="89.5"/>
	<path display="inline" fill="#231F20" d="M456,200.8h-10.1h-1.8h-17.4c-0.3,0-0.5,0.2-0.5,0.5v53.2h0v6.2c0,0.3,0.2,0.5,0.5,0.5
		h9.1c0.3,0,0.5-0.2,0.5-0.5v-2.4v-7.7v-14.1c0-0.3,0.2-0.5,0.5-0.5h1.2h7.9h3.9c0.3,0,0.5-0.2,0.5-0.5v-9.1c0-0.3-0.2-0.5-0.5-0.5
		h-3.9H438h-1.2c-0.3,0-0.5-0.2-0.5-0.5v-14.1c0-0.3,0.2-0.5,0.5-0.5h7.3H456c0.3,0,0.5-0.2,0.5-0.5v-9.1
		C456.4,201,456.2,200.8,456,200.8"/>
	<rect x="650" y="515.7" display="inline" fill="#FFFFFF" width="76.8" height="89.5"/>
	<path display="inline" fill="#231F20" d="M702.3,534l-3.6-3.6c-0.2-0.2-0.6-0.3-0.8-0.3h-10.3h-1H683h-1.8h0h-4
		c-0.3,0-0.6,0.2-0.8,0.3l-3.6,3.6c-0.2,0.2-0.3,0.6-0.3,0.8v13v37.9c0,0.3,0.2,0.6,0.3,0.8l3.6,3.6c0.2,0.2,0.6,0.3,0.8,0.3h10.4h1
		h13.6c0.3,0,0.5-0.2,0.5-0.5v-6.5V581v-23c0-0.3-0.2-0.5-0.5-0.5h-5.5H693h-5.5c-0.3,0-0.5,0.2-0.5,0.5v9.1c0,0.3,0.2,0.5,0.5,0.5
		h5v12.9h-0.5h-4.5h-4.6c-0.3,0-0.5-0.2-0.5-0.5v-32.1v-7.2c0-0.3,0.2-0.5,0.5-0.5h3.6h1h4.5c0.3,0,0.5,0.2,0.5,0.5v2.2v4.5
		c0,0.3,0.2,0.5,0.5,0.5h9.1c0.3,0,0.5-0.2,0.5-0.5v-4.5v-2.2v-5.8C702.6,534.6,702.5,534.2,702.3,534"/>
</g>
<polygon fill="#578FA2" points="9.6,509.6 7.7,511.7 16.4,519.6 0.5,520.4 0.7,523.3 16.6,522.5 8.6,531.3 10.7,533.1 21.9,520.8 
	"/>
<polygon fill="#93594B" points="584,468.4 582.3,470.6 591.4,478 575.6,479.7 575.8,482.6 591.7,480.9 584.2,490.1 586.3,491.9 
	596.9,479 "/>
<polygon fill="#A68C47" points="746.6,459 744.9,461.1 754,468.6 738.2,470.2 738.5,473.1 754.4,471.5 746.8,480.7 749,482.4 
	759.5,469.5 "/>
<polygon fill="#62633E" points="1015.6,457 1017.3,454.9 1008.2,447.4 1024,445.7 1023.7,442.8 1007.8,444.5 1015.4,435.3 
	1013.2,433.6 1002.7,446.4 "/>
<rect y="140" display="none" fill="none" width="1024" height="724"/>
</svg>
